HIERARCHY
ROOT Hips
{
	OFFSET 0.00000 0.00000 0.00000
	CHANNELS 6 Xposition Yposition Zposition Zrotation Yrotation Xrotation 
	JOINT LHipJoint
	{
		OFFSET 0 0 0
		CHANNELS 3 Zrotation Yrotation Xrotation
		JOINT LeftUpLeg
		{
			OFFSET 1.26600 -1.82114 0.91038
			CHANNELS 3 Zrotation Yrotation Xrotation
			JOINT LeftLeg
			{
				OFFSET 2.50076 -6.87080 0.00000
				CHANNELS 3 Zrotation Yrotation Xrotation
				JOINT LeftFoot
				{
					OFFSET 2.57364 -7.07102 0.00000
					CHANNELS 3 Zrotation Yrotation Xrotation
					JOINT LeftToeBase
					{
						OFFSET 0.13572 -0.37290 1.97004
						CHANNELS 3 Zrotation Yrotation Xrotation
						End Site
						{
							OFFSET 0.00000 -0.00000 1.01383
						}
					}
				}
			}
		}
	}
	JOINT RHipJoint
	{
		OFFSET 0 0 0
		CHANNELS 3 Zrotation Yrotation Xrotation
		JOINT RightUpLeg
		{
			OFFSET -1.20803 -1.82114 0.91038
			CHANNELS 3 Zrotation Yrotation Xrotation
			JOINT RightLeg
			{
				OFFSET -2.54916 -7.00377 0.00000
				CHANNELS 3 Zrotation Yrotation Xrotation
				JOINT RightFoot
				{
					OFFSET -2.56374 -7.04382 0.00000
					CHANNELS 3 Zrotation Yrotation Xrotation
					JOINT RightToeBase
					{
						OFFSET -0.23520 -0.64621 2.09921
						CHANNELS 3 Zrotation Yrotation Xrotation
						End Site
						{
							OFFSET -0.00000 -0.00000 1.10065
						}
					}
				}
			}
		}
	}
	JOINT LowerBack
	{
		OFFSET 0 0 0
		CHANNELS 3 Zrotation Yrotation Xrotation
		JOINT Spine
		{
			OFFSET 0.05492 2.10797 -0.12074
			CHANNELS 3 Zrotation Yrotation Xrotation
			JOINT Spine1
			{
				OFFSET 0.04577 2.11592 -0.04483
				CHANNELS 3 Zrotation Yrotation Xrotation
				JOINT Neck
				{
					OFFSET 0 0 0
					CHANNELS 3 Zrotation Yrotation Xrotation
					JOINT Neck1
					{
						OFFSET -0.10759 1.80167 0.15770
						CHANNELS 3 Zrotation Yrotation Xrotation
						JOINT Head
						{
							OFFSET 0.09237 1.77509 -0.40848
							CHANNELS 3 Zrotation Yrotation Xrotation
							End Site
							{
								OFFSET 0.03805 1.84093 -0.15754
							}
						}
					}
				}
				JOINT LeftShoulder
				{
					OFFSET 0 0 0
					CHANNELS 3 Zrotation Yrotation Xrotation
					JOINT LeftArm
					{
						OFFSET 3.42372 1.09575 -0.28209
						CHANNELS 3 Zrotation Yrotation Xrotation
						JOINT LeftForeArm
						{
							OFFSET 4.95681 -0.00000 0.00000
							CHANNELS 3 Zrotation Yrotation Xrotation
							JOINT LeftHand
							{
								OFFSET 3.40915 -0.00000 0.00000
								CHANNELS 3 Zrotation Yrotation Xrotation
								JOINT LeftFingerBase
								{
									OFFSET 0 0 0
									CHANNELS 3 Zrotation Yrotation Xrotation
									JOINT LeftHandIndex1
									{
										OFFSET 0.61640 -0.00000 0.00000
										CHANNELS 3 Zrotation Yrotation Xrotation
										End Site
										{
											OFFSET 0.49696 -0.00000 0.00000
										}
									}
								}
								JOINT LThumb
								{
									OFFSET 0 0 0
									CHANNELS 3 Zrotation Yrotation Xrotation
									End Site
									{
										OFFSET 0.50455 -0.00000 0.50455
									}
								}
							}
						}
					}
				}
				JOINT RightShoulder
				{
					OFFSET 0 0 0
					CHANNELS 3 Zrotation Yrotation Xrotation
					JOINT RightArm
					{
						OFFSET -3.24731 1.15872 -0.32221
						CHANNELS 3 Zrotation Yrotation Xrotation
						JOINT RightForeArm
						{
							OFFSET -5.35200 -0.00000 0.00000
							CHANNELS 3 Zrotation Yrotation Xrotation
							JOINT RightHand
							{
								OFFSET -3.43721 -0.00000 -0.00000
								CHANNELS 3 Zrotation Yrotation Xrotation
								JOINT RightFingerBase
								{
									OFFSET 0 0 0
									CHANNELS 3 Zrotation Yrotation Xrotation
									JOINT RightHandIndex1
									{
										OFFSET -0.72009 -0.00000 0.00000
										CHANNELS 3 Zrotation Yrotation Xrotation
										End Site
										{
											OFFSET -0.58056 -0.00000 0.00000
										}
									}
								}
								JOINT RThumb
								{
									OFFSET 0 0 0
									CHANNELS 3 Zrotation Yrotation Xrotation
									End Site
									{
										OFFSET -0.58942 -0.00000 0.58942
									}
								}
							}
						}
					}
				}
			}
		}
	}
}
MOTION
Frames: 7
Frame Time: .0083333
19.0726 17.3699 -24.156 0 0 0 0 0 0 -21 0 0 0 0 0 0 0 0 0 0 0 0 0 0 21 0 0 0 0 0 0 0 0 0 0 0 0 0 0 0 0 0 0 0 0 0 0 -16 0 0 21 0 0 11 0 0 0 -8 0 0 0 0 0 0 0 0 0 0 0 0 0 0 0 0 0 0 0 0 8 0 0 0 0 0 0 0 0 0 0 0 0 0 0 0 0 0
19.0726 17.3699 -24.1560 -3.1320 -6.4438 2.4908 0.0000 0.0000 0.0000 -17.5707 -2.0499 -8.2650 2.4322 9.7135 28.0538 1.1524 -3.1844 -19.4830 0.0009 -0.1941 -0.5334 0.0000 0.0000 0.0000 25.8631 1.3348 -8.7640 -2.6685 -10.1380 29.4248 -1.3495 2.8155 -21.2184 -0.2695 -3.3394 9.2251 1.0094 -1.5234 -0.2905 3.9031 -1.9986 -1.3002 3.4568 -0.9919 -1.0662 -13.4301 -6.7748 -10.3566 2.3774 -7.5189 27.5664 2.1284 -4.5688 11.3284 0.0000 0.0000 0.0000 -92.7973 3.0297 28.5948 13.2672 -21.6775 -2.5511 -0.0000 -0.0000 2.7039 10.3022 26.1878 4.5863 -7.1250 0.0000 -0.0000 -20.9309 55.2875 -5.4613 0.0000 0.0000 0.0000 85.0097 -8.8779 23.2213 -16.7848 26.5732 -3.9906 0.0000 -0.0000 -9.7898 -17.3847 1.8974 -0.5939 7.1250 -0.0000 -0.0000 7.0940 -27.9675 2.9595
19.0772 17.3760 -24.1582 -2.9304 -6.2612 2.6181 0.0000 0.0000 0.0000 -17.7703 -1.9409 -8.4609 2.4045 9.6622 27.8896 1.1200 -3.3272 -19.1727 0.0008 -0.1796 -0.4934 0.0000 0.0000 0.0000 25.6206 1.2808 -9.0193 -2.6834 -10.1640 29.5095 -1.3537 2.8959 -21.2367 -0.2789 -3.3965 9.3847 0.9165 -1.5380 -0.3072 3.8383 -2.0152 -1.4094 3.4439 -0.9984 -1.1671 -13.3235 -6.8481 -10.0775 2.3382 -7.6748 27.2947 2.0846 -4.6291 11.1753 -0.0000 -0.0000 0.0000 -92.7205 3.1696 28.4835 13.1328 -21.4814 -2.5017 -0.0000 -0.0000 2.7380 13.3864 21.4184 4.9668 -7.1250 0.0000 -0.0000 -15.4484 51.2876 -2.4419 -0.0000 -0.0000 0.0000 85.1390 -9.1675 22.7009 -16.7108 26.4749 -3.9575 0.0000 -0.0000 -9.7238 -16.9366 2.0880 -0.6357 7.1250 -0.0000 -0.0000 7.4265 -27.7722 3.1349
19.0831 17.3746 -24.1560 -2.7009 -6.2233 2.5774 0.0000 0.0000 0.0000 -18.0365 -1.7455 -8.4814 2.3914 9.6378 27.8115 1.1083 -3.3456 -19.0653 0.0035 -0.3836 -1.0541 0.0000 0.0000 0.0000 25.3536 1.3641 -8.9949 -2.6919 -10.1787 29.5573 -1.3498 2.6297 -21.2592 -0.2639 -3.3048 9.1286 0.8193 -1.5194 -0.2311 3.7601 -1.9888 -1.4144 3.4199 -0.9841 -1.2156 -13.3930 -6.9242 -9.9575 2.4922 -7.8253 27.0465 2.1355 -4.6814 11.0799 0.0000 -0.0000 0.0000 -92.6251 3.2109 28.4568 12.9971 -21.2830 -2.4522 -0.0000 -0.0000 2.7912 10.8445 24.9007 4.6114 -7.1250 0.0000 -0.0000 -19.6415 54.1840 -4.5678 0.0000 -0.0000 0.0000 85.2642 -9.3123 22.1599 -16.5210 26.2219 -3.8733 0.0000 -0.0000 -9.6242 -16.8867 2.4701 -0.7496 7.1250 -0.0000 -0.0000 7.4413 -27.3765 3.2113
19.0856 17.3751 -24.1545 -2.6017 -6.1459 2.5459 0.0000 0.0000 0.0000 -18.1510 -1.6145 -8.4844 2.3830 9.6220 27.7610 1.1054 -3.3766 -19.0341 0.0141 -0.7666 -2.1068 0.0000 0.0000 0.0000 25.2447 1.3117 -8.9930 -2.6965 -10.1867 29.5835 -1.3461 2.5218 -21.2527 -0.2657 -3.3161 9.1602 0.8190 -1.4989 -0.1920 3.7324 -1.9618 -1.3726 3.3915 -0.9710 -1.1970 -13.5515 -7.0313 -9.8730 2.7198 -8.0147 26.7870 2.2205 -4.7511 10.9999 -0.0000 0.0000 0.0000 -92.5194 3.2010 28.5187 12.9238 -21.1755 -2.4257 -0.0000 -0.0000 2.8092 12.6782 22.8123 4.9847 -7.1250 0.0000 -0.0000 -16.7666 52.5206 -3.1757 -0.0000 0.0000 0.0000 85.4120 -9.3281 21.4521 -16.2551 25.8653 -3.7565 0.0000 -0.0000 -9.3416 -16.1530 2.1783 -0.6307 7.1250 -0.0000 -0.0000 8.0212 -27.6834 3.4074
19.0917 17.3782 -24.1544 -2.6765 -6.0780 2.5787 0.0000 0.0000 0.0000 -18.0853 -1.5778 -8.5379 2.3793 9.6150 27.7388 1.0994 -3.4174 -18.9739 0.0208 -0.9306 -2.5578 0.0000 0.0000 0.0000 25.2985 1.2423 -9.0530 -2.6992 -10.1915 29.5991 -1.3381 2.6887 -21.1517 -0.3212 -3.6427 10.0735 0.9902 -1.5091 -0.1744 3.8013 -1.9743 -1.3459 3.3667 -0.9789 -1.1822 -13.5986 -7.1291 -9.8129 2.7264 -8.1494 26.5247 2.2140 -4.8097 10.9049 -0.0000 0.0000 0.0000 -92.5336 3.3121 28.4327 12.9517 -21.2163 -2.4358 -0.0000 -0.0000 2.8729 9.4404 26.3214 4.2166 -7.1250 0.0000 -0.0000 -21.8645 55.2449 -5.6990 -0.0000 0.0000 0.0000 85.4405 -9.3612 20.9772 -16.0814 25.6309 -3.6811 0.0000 -0.0000 -8.9666 -15.2262 0.9309 -0.2534 7.1250 -0.0000 -0.0000 8.8299 -28.9657 3.4869
19.1019 17.3806 -24.1580 -2.8152 -6.0871 2.7250 0.0000 0.0000 0.0000 -17.9499 -1.6055 -8.7063 2.3761 9.6091 27.7201 1.0864 -3.5671 -18.8340 0.0076 -0.5619 -1.5440 0.0000 0.0000 0.0000 25.4234 1.4412 -9.1585 -2.7011 -10.1947 29.6094 -1.3462 2.4882 -21.2604 -0.3077 -3.5660 9.8588 1.1977 -1.5659 -0.1765 3.9739 -2.0469 -1.3687 3.4295 -1.0166 -1.2021 -13.5669 -7.2071 -9.8754 2.4384 -8.1741 26.2982 2.0995 -4.8426 10.8224 0.0000 -0.0000 0.0000 -92.7157 3.5944 28.0846 13.0482 -21.3578 -2.4708 -0.0000 -0.0000 3.0064 9.5940 25.6136 4.1793 -7.1250 0.0000 -0.0000 -21.2808 54.6178 -5.2051 0.0000 -0.0000 0.0000 85.2082 -9.5112 21.2610 -16.0069 25.5300 -3.6489 0.0000 -0.0000 -8.8489 -15.4760 0.0632 -0.0175 7.1250 -0.0000 -0.0000 8.7113 -29.8568 3.2521
